<?xml version="1.0" encoding="utf-8"?>
<!-- Generator: Adobe Illustrator 23.0.3, SVG Export Plug-In . SVG Version: 6.00 Build 0)  -->
<svg version="1.1" id="Layer_1" xmlns="http://www.w3.org/2000/svg" xmlns:xlink="http://www.w3.org/1999/xlink" x="0px" y="0px"
	 viewBox="0 0 700 700" style="enable-background:new 0 0 700 700;" xml:space="preserve">
<style type="text/css">
	.st0{enable-background:new    ;}
	.st1{fill:#424242;}
	.st2{font-family:'Roboto-Regular';}
	.st3{font-size:11.7573px;}
	.st4{fill:none;stroke:#262626;}
	.st5{fill:none;stroke:#15161A;}
	.st6{fill:#2668EE;}
</style>
<g id="Group_71" transform="translate(-608 -128.5)">
	<g class="st0">
		<path class="st1" d="M1216.8,595.1l2.4-3.8h1.5l-3.1,5l3.2,5.1h-1.5l-2.4-3.9l-2.4,3.9h-1.5l3.2-5.1l-3.1-5h1.5L1216.8,595.1z"/>
		<path class="st1" d="M1228.2,596.6l-1.2,1.3v3.4h-1.3v-10h1.3v5l4.4-5h1.6l-3.9,4.4l4.2,5.6h-1.6L1228.2,596.6z"/>
		<path class="st1" d="M1235.6,597.3v3.9h-1.3v-10h3.6c1.1,0,1.9,0.3,2.5,0.8c0.6,0.6,0.9,1.3,0.9,2.2c0,1-0.3,1.7-0.9,2.2
			c-0.6,0.5-1.5,0.8-2.6,0.8H1235.6z M1235.6,596.3h2.3c0.7,0,1.2-0.2,1.6-0.5c0.4-0.3,0.6-0.8,0.6-1.4c0-0.6-0.2-1.1-0.6-1.4
			c-0.4-0.4-0.9-0.5-1.5-0.6h-2.4V596.3z"/>
		<path class="st1" d="M1244.5,601.3h-1.3v-10h1.3V601.3z"/>
		<path class="st1" d="M1250,597.2c0-1,0.1-2,0.4-3c0.3-1,0.7-1.8,1.2-2.6c0.5-0.8,1.1-1.3,1.7-1.7l0.3,0.8
			c-0.7,0.5-1.2,1.3-1.6,2.4c-0.4,1.1-0.7,2.2-0.7,3.5l0,0.6c0,1.8,0.3,3.3,1,4.6c0.4,0.8,0.8,1.4,1.4,1.8l-0.3,0.8
			c-0.6-0.3-1.2-0.9-1.7-1.7C1250.6,601.2,1250,599.4,1250,597.2z"/>
		<path class="st1" d="M1259.3,600.5c-0.5,0.6-1.2,0.9-2.1,0.9c-0.8,0-1.4-0.2-1.8-0.7s-0.6-1.1-0.6-2v-4.8h1.3v4.8
			c0,1.1,0.5,1.7,1.4,1.7c1,0,1.6-0.4,1.9-1.1v-5.4h1.3v7.5h-1.2L1259.3,600.5z"/>
		<path class="st1" d="M1263.6,593.8l0,0.9c0.6-0.7,1.3-1.1,2.2-1.1c1.5,0,2.3,0.9,2.3,2.7v4.9h-1.3v-4.9c0-0.5-0.1-0.9-0.4-1.2
			c-0.2-0.3-0.6-0.4-1.1-0.4c-0.4,0-0.8,0.1-1.1,0.3s-0.5,0.5-0.7,0.9v5.3h-1.3v-7.5H1263.6z"/>
		<path class="st1" d="M1270.1,591.8c0-0.2,0.1-0.4,0.2-0.5c0.1-0.1,0.3-0.2,0.6-0.2s0.4,0.1,0.6,0.2c0.1,0.1,0.2,0.3,0.2,0.5
			c0,0.2-0.1,0.4-0.2,0.5s-0.3,0.2-0.6,0.2s-0.4-0.1-0.6-0.2S1270.1,592,1270.1,591.8z M1271.5,601.3h-1.3v-7.5h1.3V601.3z"/>
		<path class="st1" d="M1275.1,592v1.8h1.4v1h-1.4v4.6c0,0.3,0.1,0.5,0.2,0.7c0.1,0.1,0.3,0.2,0.6,0.2c0.1,0,0.3,0,0.6-0.1v1
			c-0.3,0.1-0.6,0.1-1,0.1c-0.6,0-1-0.2-1.3-0.5c-0.3-0.3-0.4-0.8-0.4-1.5v-4.6h-1.3v-1h1.3V592H1275.1z"/>
		<path class="st1" d="M1280.9,597.3c0,1-0.1,2-0.4,2.9s-0.7,1.8-1.2,2.6c-0.5,0.8-1.1,1.4-1.7,1.7l-0.3-0.8
			c0.7-0.5,1.3-1.4,1.7-2.5c0.4-1.1,0.6-2.4,0.6-3.8v-0.2c0-1-0.1-1.9-0.3-2.7c-0.2-0.8-0.5-1.6-0.8-2.2c-0.4-0.7-0.8-1.2-1.2-1.5
			l0.3-0.8c0.6,0.3,1.2,0.9,1.7,1.7c0.5,0.8,0.9,1.7,1.2,2.6C1280.7,595.2,1280.9,596.2,1280.9,597.3z"/>
	</g>
	<g class="st0">
		<path class="st1" d="M755.4,616v-1.3h7.3v1.3H755.4z M764.7,614.6c0.2,0,0.4,0.1,0.5,0.2c0.1,0.1,0.2,0.3,0.2,0.6
			s-0.1,0.4-0.2,0.6s-0.3,0.2-0.5,0.2c-0.2,0-0.4-0.1-0.5-0.2s-0.2-0.3-0.2-0.6s0.1-0.4,0.2-0.6
			C764.3,614.7,764.5,614.6,764.7,614.6z"/>
		<path class="st1" d="M764.5,619.7h-1.8v1.4h-1v-1.4h-4.5c-0.3,0-0.5,0.1-0.7,0.2c-0.1,0.1-0.2,0.3-0.2,0.6c0,0.1,0,0.3,0.1,0.6h-1
			c-0.1-0.3-0.1-0.7-0.1-1c0-0.6,0.2-1,0.5-1.3c0.3-0.3,0.8-0.4,1.4-0.4h4.5v-1.4h1v1.4h1.8V619.7z"/>
		<path class="st1" d="M755.3,625.7c0-1,0.3-1.8,1-2.5s1.5-1,2.6-1h0.2c0.7,0,1.4,0.1,1.9,0.4s1,0.7,1.3,1.2
			c0.3,0.5,0.5,1.1,0.5,1.7c0,1-0.3,1.7-0.9,2.3c-0.6,0.5-1.5,0.8-2.7,0.8h-0.5v-5c-0.7,0-1.3,0.2-1.7,0.6s-0.7,0.9-0.7,1.6
			c0,0.4,0.1,0.8,0.3,1.1c0.2,0.3,0.4,0.6,0.7,0.8l-0.6,0.8C755.8,627.9,755.3,627,755.3,625.7z M761.8,625.5c0-0.5-0.2-0.9-0.6-1.3
			c-0.4-0.3-0.9-0.6-1.5-0.6v3.7h0.1c0.6,0,1.1-0.2,1.5-0.5C761.7,626.5,761.8,626.1,761.8,625.5z"/>
		<path class="st1" d="M762.7,631.3l-0.8,0c0.6,0.5,0.9,1.3,0.9,2.2c0,1-0.4,1.8-1.2,2.1c0.4,0.2,0.6,0.6,0.9,1
			c0.2,0.4,0.3,0.9,0.3,1.4c0,1.6-0.9,2.5-2.5,2.5h-4.9v-1.3h4.8c0.5,0,0.9-0.1,1.2-0.4s0.4-0.7,0.4-1.2c0-0.5-0.1-0.9-0.4-1.2
			s-0.7-0.5-1.1-0.5h-4.9v-1.3h4.8c1.1,0,1.6-0.5,1.6-1.6c0-0.8-0.3-1.4-1-1.7h-5.3v-1.3h7.3V631.3z"/>
		<path class="st1" d="M755.4,650v-1.3h8.3l-0.9-2.6h1.1l1.3,3.7v0.2H755.4z"/>
	</g>
	<g class="st0">
		<path class="st1" d="M825.8,616v-1.3h7.3v1.3H825.8z M835.1,614.6c0.2,0,0.4,0.1,0.5,0.2c0.1,0.1,0.2,0.3,0.2,0.6
			s-0.1,0.4-0.2,0.6s-0.3,0.2-0.5,0.2c-0.2,0-0.4-0.1-0.5-0.2s-0.2-0.3-0.2-0.6s0.1-0.4,0.2-0.6
			C834.7,614.7,834.9,614.6,835.1,614.6z"/>
		<path class="st1" d="M834.9,619.7h-1.8v1.4h-1v-1.4h-4.5c-0.3,0-0.5,0.1-0.7,0.2c-0.1,0.1-0.2,0.3-0.2,0.6c0,0.1,0,0.3,0.1,0.6h-1
			c-0.1-0.3-0.1-0.7-0.1-1c0-0.6,0.2-1,0.5-1.3c0.3-0.3,0.8-0.4,1.4-0.4h4.5v-1.4h1v1.4h1.8V619.7z"/>
		<path class="st1" d="M825.7,625.7c0-1,0.3-1.8,1-2.5s1.5-1,2.6-1h0.2c0.7,0,1.4,0.1,1.9,0.4s1,0.7,1.3,1.2
			c0.3,0.5,0.5,1.1,0.5,1.7c0,1-0.3,1.7-0.9,2.3c-0.6,0.5-1.5,0.8-2.7,0.8h-0.5v-5c-0.7,0-1.3,0.2-1.7,0.6s-0.7,0.9-0.7,1.6
			c0,0.4,0.1,0.8,0.3,1.1c0.2,0.3,0.4,0.6,0.7,0.8l-0.6,0.8C826.1,627.9,825.7,627,825.7,625.7z M832.2,625.5c0-0.5-0.2-0.9-0.6-1.3
			c-0.4-0.3-0.9-0.6-1.5-0.6v3.7h0.1c0.6,0,1.1-0.2,1.5-0.5C832.1,626.5,832.2,626.1,832.2,625.5z"/>
		<path class="st1" d="M833.1,631.3l-0.8,0c0.6,0.5,0.9,1.3,0.9,2.2c0,1-0.4,1.8-1.2,2.1c0.4,0.2,0.6,0.6,0.9,1
			c0.2,0.4,0.3,0.9,0.3,1.4c0,1.6-0.9,2.5-2.5,2.5h-4.9v-1.3h4.8c0.5,0,0.9-0.1,1.2-0.4s0.4-0.7,0.4-1.2c0-0.5-0.1-0.9-0.4-1.2
			s-0.7-0.5-1.1-0.5h-4.9v-1.3h4.8c1.1,0,1.6-0.5,1.6-1.6c0-0.8-0.3-1.4-1-1.7h-5.3v-1.3h7.3V631.3z"/>
		<path class="st1" d="M825.8,652.4v-6.6h0.9l3.8,3.5c0.6,0.5,1,0.9,1.4,1.1s0.7,0.3,1.1,0.3c0.5,0,0.9-0.2,1.3-0.5
			c0.3-0.3,0.5-0.7,0.5-1.3c0-0.6-0.2-1.1-0.5-1.5s-0.8-0.5-1.5-0.5v-1.3c0.9,0,1.6,0.3,2.2,0.9c0.6,0.6,0.8,1.4,0.8,2.4
			c0,0.9-0.2,1.7-0.7,2.2s-1.1,0.8-1.9,0.8c-1,0-2.1-0.6-3.5-1.9l-2.9-2.7v5H825.8z"/>
	</g>
	<g class="st0">
		<path class="st1" d="M895.1,616v-1.3h7.3v1.3H895.1z M904.3,614.6c0.2,0,0.4,0.1,0.5,0.2c0.1,0.1,0.2,0.3,0.2,0.6
			s-0.1,0.4-0.2,0.6s-0.3,0.2-0.5,0.2c-0.2,0-0.4-0.1-0.5-0.2s-0.2-0.3-0.2-0.6s0.1-0.4,0.2-0.6
			C903.9,614.7,904.1,614.6,904.3,614.6z"/>
		<path class="st1" d="M904.1,619.7h-1.8v1.4h-1v-1.4h-4.5c-0.3,0-0.5,0.1-0.7,0.2c-0.1,0.1-0.2,0.3-0.2,0.6c0,0.1,0,0.3,0.1,0.6h-1
			c-0.1-0.3-0.1-0.7-0.1-1c0-0.6,0.2-1,0.5-1.3c0.3-0.3,0.8-0.4,1.4-0.4h4.5v-1.4h1v1.4h1.8V619.7z"/>
		<path class="st1" d="M894.9,625.7c0-1,0.3-1.8,1-2.5s1.5-1,2.6-1h0.2c0.7,0,1.4,0.1,1.9,0.4s1,0.7,1.3,1.2
			c0.3,0.5,0.5,1.1,0.5,1.7c0,1-0.3,1.7-0.9,2.3c-0.6,0.5-1.5,0.8-2.7,0.8h-0.5v-5c-0.7,0-1.3,0.2-1.7,0.6s-0.7,0.9-0.7,1.6
			c0,0.4,0.1,0.8,0.3,1.1c0.2,0.3,0.4,0.6,0.7,0.8l-0.6,0.8C895.4,627.9,894.9,627,894.9,625.7z M901.5,625.5c0-0.5-0.2-0.9-0.6-1.3
			c-0.4-0.3-0.9-0.6-1.5-0.6v3.7h0.1c0.6,0,1.1-0.2,1.5-0.5C901.3,626.5,901.5,626.1,901.5,625.5z"/>
		<path class="st1" d="M902.4,631.3l-0.8,0c0.6,0.5,0.9,1.3,0.9,2.2c0,1-0.4,1.8-1.2,2.1c0.4,0.2,0.6,0.6,0.9,1
			c0.2,0.4,0.3,0.9,0.3,1.4c0,1.6-0.9,2.5-2.5,2.5h-4.9v-1.3h4.8c0.5,0,0.9-0.1,1.2-0.4s0.4-0.7,0.4-1.2c0-0.5-0.1-0.9-0.4-1.2
			s-0.7-0.5-1.1-0.5h-4.9v-1.3h4.8c1.1,0,1.6-0.5,1.6-1.6c0-0.8-0.3-1.4-1-1.7h-5.3v-1.3h7.3V631.3z"/>
		<path class="st1" d="M900.6,647.7v1c0,0.6,0.2,1.1,0.5,1.4c0.3,0.3,0.7,0.5,1.2,0.5c1.2,0,1.7-0.6,1.7-1.8c0-0.6-0.2-1-0.5-1.3
			c-0.3-0.3-0.7-0.5-1.2-0.5v-1.3c0.8,0,1.4,0.3,1.9,0.9s0.8,1.3,0.8,2.2c0,0.9-0.2,1.7-0.7,2.2c-0.5,0.5-1.2,0.8-2,0.8
			c-0.4,0-0.8-0.1-1.2-0.4c-0.4-0.3-0.7-0.7-0.9-1.2c-0.2,0.6-0.5,1-0.9,1.3c-0.4,0.3-0.9,0.5-1.5,0.5c-0.9,0-1.6-0.3-2.1-0.9
			c-0.5-0.6-0.8-1.4-0.8-2.3s0.3-1.7,0.8-2.3c0.5-0.6,1.2-0.9,2-0.9v1.3c-0.5,0-0.9,0.2-1.2,0.5c-0.3,0.3-0.5,0.8-0.5,1.4
			c0,0.6,0.2,1.1,0.5,1.4c0.3,0.3,0.8,0.5,1.4,0.5c0.6,0,1-0.2,1.3-0.5c0.3-0.4,0.5-0.9,0.5-1.5v-1H900.6z"/>
	</g>
	<g class="st0">
		<path class="st1" d="M964.3,616v-1.3h7.3v1.3H964.3z M973.6,614.6c0.2,0,0.4,0.1,0.5,0.2c0.1,0.1,0.2,0.3,0.2,0.6
			s-0.1,0.4-0.2,0.6s-0.3,0.2-0.5,0.2s-0.4-0.1-0.5-0.2c-0.1-0.1-0.2-0.3-0.2-0.6s0.1-0.4,0.2-0.6
			C973.2,614.7,973.4,614.6,973.6,614.6z"/>
		<path class="st1" d="M973.4,619.7h-1.8v1.4h-1v-1.4h-4.5c-0.3,0-0.5,0.1-0.7,0.2s-0.2,0.3-0.2,0.6c0,0.1,0,0.3,0.1,0.6h-1
			c-0.1-0.3-0.1-0.7-0.1-1c0-0.6,0.2-1,0.5-1.3c0.3-0.3,0.8-0.4,1.4-0.4h4.5v-1.4h1v1.4h1.8V619.7z"/>
		<path class="st1" d="M964.2,625.7c0-1,0.3-1.8,1-2.5s1.5-1,2.6-1h0.2c0.7,0,1.4,0.1,1.9,0.4s1,0.7,1.3,1.2
			c0.3,0.5,0.5,1.1,0.5,1.7c0,1-0.3,1.7-0.9,2.3c-0.6,0.5-1.5,0.8-2.7,0.8h-0.5v-5c-0.7,0-1.3,0.2-1.7,0.6s-0.7,0.9-0.7,1.6
			c0,0.4,0.1,0.8,0.3,1.1c0.2,0.3,0.4,0.6,0.7,0.8l-0.6,0.8C964.6,627.9,964.2,627,964.2,625.7z M970.7,625.5c0-0.5-0.2-0.9-0.6-1.3
			c-0.4-0.3-0.9-0.6-1.5-0.6v3.7h0.1c0.6,0,1.1-0.2,1.5-0.5C970.5,626.5,970.7,626.1,970.7,625.5z"/>
		<path class="st1" d="M971.6,631.3l-0.8,0c0.6,0.5,0.9,1.3,0.9,2.2c0,1-0.4,1.8-1.2,2.1c0.4,0.2,0.6,0.6,0.9,1
			c0.2,0.4,0.3,0.9,0.3,1.4c0,1.6-0.8,2.5-2.5,2.5h-4.9v-1.3h4.8c0.5,0,0.9-0.1,1.2-0.4c0.3-0.2,0.4-0.7,0.4-1.2
			c0-0.5-0.1-0.9-0.4-1.2c-0.3-0.3-0.6-0.5-1.1-0.5h-4.9v-1.3h4.8c1.1,0,1.6-0.5,1.6-1.6c0-0.8-0.3-1.4-1-1.7h-5.3v-1.3h7.3V631.3z"
			/>
		<path class="st1" d="M967.6,651.2v1.4h-1v-1.4h-2.3v-1.3h2.3v-4.6h0.7l6.8,4.5v1.4H967.6z M967.6,646.8v3.1h4.8l-0.3-0.2
			L967.6,646.8z"/>
	</g>
	<g class="st0">
		<path class="st1" d="M1034.7,616v-1.3h7.3v1.3H1034.7z M1043.9,614.6c0.2,0,0.4,0.1,0.5,0.2c0.1,0.1,0.2,0.3,0.2,0.6
			s-0.1,0.4-0.2,0.6s-0.3,0.2-0.5,0.2s-0.4-0.1-0.5-0.2c-0.1-0.1-0.2-0.3-0.2-0.6s0.1-0.4,0.2-0.6
			C1043.6,614.7,1043.7,614.6,1043.9,614.6z"/>
		<path class="st1" d="M1043.8,619.7h-1.8v1.4h-1v-1.4h-4.5c-0.3,0-0.5,0.1-0.7,0.2s-0.2,0.3-0.2,0.6c0,0.1,0,0.3,0.1,0.6h-1
			c-0.1-0.3-0.1-0.7-0.1-1c0-0.6,0.2-1,0.5-1.3c0.3-0.3,0.8-0.4,1.4-0.4h4.5v-1.4h1v1.4h1.8V619.7z"/>
		<path class="st1" d="M1034.6,625.7c0-1,0.3-1.8,1-2.5s1.5-1,2.6-1h0.2c0.7,0,1.4,0.1,1.9,0.4s1,0.7,1.3,1.2
			c0.3,0.5,0.5,1.1,0.5,1.7c0,1-0.3,1.7-0.9,2.3c-0.6,0.5-1.5,0.8-2.7,0.8h-0.5v-5c-0.7,0-1.3,0.2-1.7,0.6s-0.7,0.9-0.7,1.6
			c0,0.4,0.1,0.8,0.3,1.1c0.2,0.3,0.4,0.6,0.7,0.8l-0.6,0.8C1035,627.9,1034.6,627,1034.6,625.7z M1041.1,625.5
			c0-0.5-0.2-0.9-0.6-1.3c-0.4-0.3-0.9-0.6-1.5-0.6v3.7h0.1c0.6,0,1.1-0.2,1.5-0.5C1040.9,626.5,1041.1,626.1,1041.1,625.5z"/>
		<path class="st1" d="M1042,631.3l-0.8,0c0.6,0.5,0.9,1.3,0.9,2.2c0,1-0.4,1.8-1.2,2.1c0.4,0.2,0.6,0.6,0.9,1
			c0.2,0.4,0.3,0.9,0.3,1.4c0,1.6-0.8,2.5-2.5,2.5h-4.9v-1.3h4.8c0.5,0,0.9-0.1,1.2-0.4c0.3-0.2,0.4-0.7,0.4-1.2
			c0-0.5-0.1-0.9-0.4-1.2c-0.3-0.3-0.6-0.5-1.1-0.5h-4.9v-1.3h4.8c1.1,0,1.6-0.5,1.6-1.6c0-0.8-0.3-1.4-1-1.7h-5.3v-1.3h7.3V631.3z"
			/>
		<path class="st1" d="M1039.6,646.4l4.9,0.5v5.1h-1.2V648l-2.7-0.3c0.3,0.5,0.4,1,0.4,1.7c0,0.9-0.3,1.6-0.9,2.2s-1.4,0.8-2.4,0.8
			c-1,0-1.8-0.3-2.4-0.8s-0.9-1.3-0.9-2.3c0-0.9,0.2-1.6,0.7-2.2s1.2-0.9,2-1v1.2c-0.6,0.1-1,0.3-1.3,0.6c-0.3,0.3-0.4,0.8-0.4,1.3
			c0,0.6,0.2,1.1,0.6,1.4c0.4,0.3,0.9,0.5,1.6,0.5c0.7,0,1.2-0.2,1.6-0.5c0.4-0.4,0.6-0.9,0.6-1.5c0-0.6-0.1-1-0.4-1.3l-0.3-0.3
			L1039.6,646.4z"/>
	</g>
	<g class="st0">
		<path class="st1" d="M1103.9,616v-1.3h7.3v1.3H1103.9z M1113.2,614.6c0.2,0,0.4,0.1,0.5,0.2c0.1,0.1,0.2,0.3,0.2,0.6
			s-0.1,0.4-0.2,0.6s-0.3,0.2-0.5,0.2s-0.4-0.1-0.5-0.2c-0.1-0.1-0.2-0.3-0.2-0.6s0.1-0.4,0.2-0.6
			C1112.8,614.7,1113,614.6,1113.2,614.6z"/>
		<path class="st1" d="M1113,619.7h-1.8v1.4h-1v-1.4h-4.5c-0.3,0-0.5,0.1-0.7,0.2s-0.2,0.3-0.2,0.6c0,0.1,0,0.3,0.1,0.6h-1
			c-0.1-0.3-0.1-0.7-0.1-1c0-0.6,0.2-1,0.5-1.3c0.3-0.3,0.8-0.4,1.4-0.4h4.5v-1.4h1v1.4h1.8V619.7z"/>
		<path class="st1" d="M1103.8,625.7c0-1,0.3-1.8,1-2.5s1.5-1,2.6-1h0.2c0.7,0,1.4,0.1,1.9,0.4s1,0.7,1.3,1.2
			c0.3,0.5,0.5,1.1,0.5,1.7c0,1-0.3,1.7-0.9,2.3c-0.6,0.5-1.5,0.8-2.7,0.8h-0.5v-5c-0.7,0-1.3,0.2-1.7,0.6s-0.7,0.9-0.7,1.6
			c0,0.4,0.1,0.8,0.3,1.1c0.2,0.3,0.4,0.6,0.7,0.8l-0.6,0.8C1104.3,627.9,1103.8,627,1103.8,625.7z M1110.4,625.5
			c0-0.5-0.2-0.9-0.6-1.3c-0.4-0.3-0.9-0.6-1.5-0.6v3.7h0.1c0.6,0,1.1-0.2,1.5-0.5C1110.2,626.5,1110.4,626.1,1110.4,625.5z"/>
		<path class="st1" d="M1111.3,631.3l-0.8,0c0.6,0.5,0.9,1.3,0.9,2.2c0,1-0.4,1.8-1.2,2.1c0.4,0.2,0.6,0.6,0.9,1
			c0.2,0.4,0.3,0.9,0.3,1.4c0,1.6-0.8,2.5-2.5,2.5h-4.9v-1.3h4.8c0.5,0,0.9-0.1,1.2-0.4c0.3-0.2,0.4-0.7,0.4-1.2
			c0-0.5-0.1-0.9-0.4-1.2c-0.3-0.3-0.6-0.5-1.1-0.5h-4.9v-1.3h4.8c1.1,0,1.6-0.5,1.6-1.6c0-0.8-0.3-1.4-1-1.7h-5.3v-1.3h7.3V631.3z"
			/>
		<path class="st1" d="M1113.8,650.8h-1.1v-0.2c0-1-0.3-1.8-0.9-2.4c-0.6-0.6-1.3-0.9-2.4-1c0.6,0.5,0.9,1.3,0.9,2.2
			c0,0.9-0.3,1.6-0.9,2.1c-0.6,0.5-1.4,0.8-2.3,0.8c-1,0-1.8-0.3-2.4-0.8s-0.9-1.3-0.9-2.3c0-1,0.4-1.7,1.1-2.3
			c0.7-0.6,1.7-0.9,2.8-0.9h0.5c1.8,0,3.2,0.4,4.2,1.2c1,0.8,1.4,2,1.5,3.5V650.8z M1109.3,649.1c0-0.4-0.1-0.8-0.4-1.2
			c-0.3-0.4-0.6-0.6-1-0.8h-0.5c-0.8,0-1.5,0.2-2,0.6c-0.5,0.4-0.7,0.8-0.7,1.4c0,0.6,0.2,1,0.6,1.4s1,0.5,1.6,0.5
			c0.7,0,1.2-0.2,1.6-0.5S1109.3,649.7,1109.3,649.1z"/>
	</g>
	<g class="st0">
		<path class="st1" d="M631.5,309.4l2.6-5h1.5l-3.4,6.3v3.7h-1.3v-3.7l-3.4-6.3h1.5L631.5,309.4z"/>
		<path class="st1" d="M642.7,309.7l-1.2,1.3v3.4h-1.3v-10h1.3v5l4.4-5h1.6l-3.9,4.4l4.2,5.6h-1.6L642.7,309.7z"/>
		<path class="st1" d="M650.2,310.5v3.9h-1.3v-10h3.6c1.1,0,1.9,0.3,2.5,0.8s0.9,1.3,0.9,2.2c0,1-0.3,1.7-0.9,2.2
			c-0.6,0.5-1.5,0.8-2.6,0.8H650.2z M650.2,309.4h2.3c0.7,0,1.2-0.2,1.6-0.5s0.6-0.8,0.6-1.4c0-0.6-0.2-1.1-0.6-1.4
			c-0.4-0.4-0.9-0.5-1.5-0.6h-2.4V309.4z"/>
		<path class="st1" d="M659,314.4h-1.3v-10h1.3V314.4z"/>
		<path class="st1" d="M664.6,310.3c0-1,0.1-2,0.4-3c0.3-1,0.7-1.8,1.2-2.6c0.5-0.8,1.1-1.3,1.7-1.7l0.3,0.8
			c-0.7,0.5-1.2,1.3-1.6,2.4c-0.4,1.1-0.7,2.2-0.7,3.5l0,0.6c0,1.8,0.3,3.3,1,4.6c0.4,0.8,0.8,1.4,1.4,1.8l-0.3,0.8
			c-0.6-0.3-1.2-0.9-1.7-1.7C665.1,314.4,664.6,312.5,664.6,310.3z"/>
		<path class="st1" d="M673.9,313.7c-0.5,0.6-1.2,0.9-2.1,0.9c-0.8,0-1.4-0.2-1.8-0.7c-0.4-0.5-0.6-1.1-0.6-2v-4.9h1.3v4.8
			c0,1.1,0.5,1.7,1.4,1.7c1,0,1.6-0.4,1.9-1.1v-5.4h1.3v7.5h-1.2L673.9,313.7z"/>
		<path class="st1" d="M678.2,306.9l0,0.9c0.6-0.7,1.3-1.1,2.2-1.1c1.5,0,2.3,0.9,2.3,2.7v4.9h-1.3v-4.9c0-0.5-0.1-0.9-0.4-1.2
			c-0.2-0.3-0.6-0.4-1.1-0.4c-0.4,0-0.8,0.1-1.1,0.3c-0.3,0.2-0.5,0.5-0.7,0.9v5.3H677v-7.5H678.2z"/>
		<path class="st1" d="M684.6,305c0-0.2,0.1-0.4,0.2-0.5c0.1-0.1,0.3-0.2,0.6-0.2c0.2,0,0.4,0.1,0.6,0.2c0.1,0.1,0.2,0.3,0.2,0.5
			s-0.1,0.4-0.2,0.5c-0.1,0.1-0.3,0.2-0.6,0.2c-0.2,0-0.4-0.1-0.6-0.2S684.6,305.2,684.6,305z M686,314.4h-1.3v-7.5h1.3V314.4z"/>
		<path class="st1" d="M689.7,305.1v1.8h1.4v1h-1.4v4.6c0,0.3,0.1,0.5,0.2,0.7c0.1,0.1,0.3,0.2,0.6,0.2c0.1,0,0.3,0,0.6-0.1v1
			c-0.3,0.1-0.6,0.1-1,0.1c-0.6,0-1-0.2-1.3-0.5c-0.3-0.3-0.4-0.8-0.4-1.5v-4.6h-1.3v-1h1.3v-1.8H689.7z"/>
		<path class="st1" d="M695.4,310.4c0,1-0.1,2-0.4,2.9c-0.3,0.9-0.7,1.8-1.2,2.6c-0.5,0.8-1.1,1.4-1.7,1.7l-0.3-0.8
			c0.7-0.5,1.3-1.4,1.7-2.5c0.4-1.1,0.6-2.4,0.6-3.8v-0.2c0-1-0.1-1.9-0.3-2.7s-0.5-1.6-0.8-2.2c-0.4-0.7-0.8-1.2-1.2-1.5l0.3-0.8
			c0.6,0.3,1.2,0.9,1.7,1.7c0.5,0.8,0.9,1.7,1.2,2.6S695.4,309.3,695.4,310.4z"/>
	</g>
	<text transform="matrix(0.9815 0 0 1 679.252 569.5264)" class="st1 st2 st3">10</text>
	<text transform="matrix(0.9815 0 0 1 738.1074 308.5137)" class="st1 st2 st3">10</text>
	<text transform="matrix(0.9815 0 0 1 679.252 534.2539)" class="st1 st2 st3">20</text>
	<text transform="matrix(0.9815 0 0 1 772.728 308.5137)" class="st1 st2 st3">20</text>
	<text transform="matrix(0.9815 0 0 1 679.252 498.9824)" class="st1 st2 st3">30</text>
	<text transform="matrix(0.9815 0 0 1 807.3491 308.5137)" class="st1 st2 st3">30</text>
	<text transform="matrix(0.9815 0 0 1 679.252 463.7104)" class="st1 st2 st3">40</text>
	<text transform="matrix(0.9815 0 0 1 911.2114 308.5137)" class="st1 st2 st3">60</text>
	<text transform="matrix(0.9815 0 0 1 841.9697 308.5137)" class="st1 st2 st3">40</text>
	<text transform="matrix(0.9815 0 0 1 679.252 428.4385)" class="st1 st2 st3">50</text>
	<g class="st0">
		<path class="st1" d="M1156.5,308.5h-1v-7.1l-2.1,0.8v-1l3-1.1h0.2V308.5z"/>
		<path class="st1" d="M1161.1,303.8h0.8c0.5,0,0.9-0.1,1.2-0.4c0.3-0.3,0.4-0.6,0.4-1c0-1-0.5-1.5-1.4-1.5c-0.5,0-0.8,0.1-1.1,0.4
			s-0.4,0.6-0.4,1h-1c0-0.7,0.2-1.2,0.7-1.7c0.5-0.4,1.1-0.7,1.8-0.7c0.8,0,1.4,0.2,1.8,0.6s0.7,1,0.7,1.7c0,0.4-0.1,0.7-0.3,1.1
			c-0.2,0.3-0.5,0.6-0.9,0.8c0.5,0.1,0.8,0.4,1,0.7s0.4,0.7,0.4,1.2c0,0.8-0.2,1.3-0.7,1.8c-0.5,0.4-1.1,0.7-1.9,0.7
			c-0.8,0-1.4-0.2-1.9-0.6s-0.7-1-0.7-1.7h1c0,0.4,0.1,0.8,0.4,1.1c0.3,0.3,0.7,0.4,1.1,0.4c0.5,0,0.9-0.1,1.2-0.4s0.4-0.7,0.4-1.2
			c0-0.5-0.1-0.9-0.4-1.1s-0.7-0.4-1.3-0.4h-0.8V303.8z"/>
		<path class="st1" d="M1171.2,304.9c0,1.2-0.2,2.2-0.6,2.8c-0.4,0.6-1.1,0.9-2,0.9c-0.9,0-1.5-0.3-1.9-0.9s-0.6-1.5-0.7-2.6v-1.4
			c0-1.2,0.2-2.1,0.6-2.7c0.4-0.6,1.1-0.9,2-0.9c0.9,0,1.5,0.3,2,0.9c0.4,0.6,0.6,1.5,0.6,2.7V304.9z M1170.1,303.5
			c0-0.9-0.1-1.6-0.4-2c-0.2-0.4-0.6-0.6-1.2-0.6c-0.5,0-0.9,0.2-1.2,0.6c-0.2,0.4-0.4,1-0.4,1.9v1.7c0,0.9,0.1,1.6,0.4,2
			c0.3,0.4,0.6,0.6,1.2,0.6c0.5,0,0.9-0.2,1.1-0.6c0.3-0.4,0.4-1,0.4-1.9V303.5z"/>
	</g>
	<g class="st0">
		<path class="st1" d="M1120.2,308.5h-1v-7.1l-2.1,0.8v-1l3-1.1h0.2V308.5z"/>
		<path class="st1" d="M1128.6,308.5h-5.4v-0.8l2.8-3.2c0.4-0.5,0.7-0.9,0.9-1.2c0.2-0.3,0.2-0.6,0.2-0.9c0-0.4-0.1-0.8-0.4-1.1
			c-0.3-0.3-0.6-0.4-1-0.4c-0.5,0-0.9,0.2-1.2,0.5c-0.3,0.3-0.4,0.7-0.4,1.3h-1c0-0.8,0.2-1.4,0.7-1.9s1.1-0.7,2-0.7
			c0.8,0,1.4,0.2,1.8,0.6c0.4,0.4,0.7,1,0.7,1.6c0,0.8-0.5,1.8-1.5,2.9l-2.2,2.4h4.1V308.5z"/>
		<path class="st1" d="M1134.8,304.9c0,1.2-0.2,2.2-0.6,2.8c-0.4,0.6-1.1,0.9-2,0.9c-0.9,0-1.5-0.3-1.9-0.9s-0.6-1.5-0.7-2.6v-1.4
			c0-1.2,0.2-2.1,0.6-2.7c0.4-0.6,1.1-0.9,2-0.9c0.9,0,1.5,0.3,2,0.9c0.4,0.6,0.6,1.5,0.6,2.7V304.9z M1133.8,303.5
			c0-0.9-0.1-1.6-0.4-2c-0.2-0.4-0.6-0.6-1.2-0.6c-0.5,0-0.9,0.2-1.2,0.6c-0.2,0.4-0.4,1-0.4,1.9v1.7c0,0.9,0.1,1.6,0.4,2
			c0.3,0.4,0.6,0.6,1.2,0.6c0.5,0,0.9-0.2,1.1-0.6c0.3-0.4,0.4-1,0.4-1.9V303.5z"/>
	</g>
	<g class="st0">
		<path class="st1" d="M1083.8,308.5h-1v-7.1l-2.1,0.8v-1l3-1.1h0.2V308.5z"/>
		<path class="st1" d="M1090.3,308.5h-1v-7.1l-2.1,0.8v-1l3-1.1h0.2V308.5z"/>
		<path class="st1" d="M1098.5,304.9c0,1.2-0.2,2.2-0.6,2.8c-0.4,0.6-1.1,0.9-2,0.9c-0.9,0-1.5-0.3-1.9-0.9s-0.6-1.5-0.7-2.6v-1.4
			c0-1.2,0.2-2.1,0.6-2.7c0.4-0.6,1.1-0.9,2-0.9c0.9,0,1.5,0.3,2,0.9c0.4,0.6,0.6,1.5,0.6,2.7V304.9z M1097.4,303.5
			c0-0.9-0.1-1.6-0.4-2c-0.2-0.4-0.6-0.6-1.2-0.6c-0.5,0-0.9,0.2-1.2,0.6c-0.2,0.4-0.4,1-0.4,1.9v1.7c0,0.9,0.1,1.6,0.4,2
			c0.3,0.4,0.6,0.6,1.2,0.6c0.5,0,0.9-0.2,1.1-0.6c0.3-0.4,0.4-1,0.4-1.9V303.5z"/>
	</g>
	<g class="st0">
		<path class="st1" d="M1051.5,308.5h-1v-7.1l-2.1,0.8v-1l3-1.1h0.2V308.5z"/>
		<path class="st1" d="M1059.7,304.9c0,1.2-0.2,2.2-0.6,2.8c-0.4,0.6-1.1,0.9-2,0.9c-0.9,0-1.5-0.3-1.9-0.9s-0.6-1.5-0.7-2.6v-1.4
			c0-1.2,0.2-2.1,0.6-2.7c0.4-0.6,1.1-0.9,2-0.9c0.9,0,1.5,0.3,2,0.9c0.4,0.6,0.6,1.5,0.6,2.7V304.9z M1058.7,303.5
			c0-0.9-0.1-1.6-0.4-2c-0.2-0.4-0.6-0.6-1.2-0.6c-0.5,0-0.9,0.2-1.2,0.6c-0.2,0.4-0.4,1-0.4,1.9v1.7c0,0.9,0.1,1.6,0.4,2
			c0.3,0.4,0.6,0.6,1.2,0.6c0.5,0,0.9-0.2,1.1-0.6c0.3-0.4,0.4-1,0.4-1.9V303.5z"/>
		<path class="st1" d="M1066.2,304.9c0,1.2-0.2,2.2-0.6,2.8c-0.4,0.6-1.1,0.9-2,0.9c-0.9,0-1.5-0.3-1.9-0.9s-0.6-1.5-0.7-2.6v-1.4
			c0-1.2,0.2-2.1,0.6-2.7c0.4-0.6,1.1-0.9,2-0.9c0.9,0,1.5,0.3,2,0.9c0.4,0.6,0.6,1.5,0.6,2.7V304.9z M1065.1,303.5
			c0-0.9-0.1-1.6-0.4-2c-0.2-0.4-0.6-0.6-1.2-0.6c-0.5,0-0.9,0.2-1.2,0.6c-0.2,0.4-0.4,1-0.4,1.9v1.7c0,0.9,0.1,1.6,0.4,2
			c0.3,0.4,0.6,0.6,1.2,0.6c0.5,0,0.9-0.2,1.1-0.6c0.3-0.4,0.4-1,0.4-1.9V303.5z"/>
	</g>
	<text transform="matrix(0.9815 0 0 1 1015.0732 308.5137)" class="st1 st2 st3">90</text>
	<text transform="matrix(0.9815 0 0 1 980.4531 308.5137)" class="st1 st2 st3">80</text>
	<text transform="matrix(0.9815 0 0 1 945.832 308.5137)" class="st1 st2 st3">70</text>
	<text transform="matrix(0.9815 0 0 1 876.5903 308.5137)" class="st1 st2 st3">50</text>
	<text transform="matrix(0.9815 0 0 1 679.252 393.1665)" class="st1 st2 st3">60</text>
	<text transform="matrix(0.9815 0 0 1 679.252 357.8945)" class="st1 st2 st3">70</text>
	<g id="Group_5" transform="translate(-34.5 92)">
		<line id="Line_2" class="st4" x1="743.8" y1="225.9" x2="743.8" y2="508.1"/>
		<line id="Line_3" class="st4" x1="743.8" y1="508.1" x2="1229.6" y2="508.1"/>
		<line id="Line_4" class="st5" x1="743.8" y1="472.8" x2="1229.6" y2="472.8"/>
		<line id="Line_11" class="st5" x1="743.8" y1="331.7" x2="1229.6" y2="331.7"/>
		<line id="Line_7" class="st5" x1="743.8" y1="402.3" x2="1229.6" y2="402.3"/>
		<line id="Line_8" class="st5" x1="743.8" y1="261.2" x2="1229.6" y2="261.2"/>
		<line id="Line_5" class="st5" x1="743.8" y1="437.6" x2="1229.6" y2="437.6"/>
		<line id="Line_10" class="st5" x1="743.8" y1="296.5" x2="1229.6" y2="296.5"/>
		<line id="Line_6" class="st5" x1="743.8" y1="367" x2="1229.6" y2="367"/>
		<line id="Line_9" class="st5" x1="743.8" y1="225.9" x2="1229.6" y2="225.9"/>
		<line id="Line_19" class="st5" x1="778.4" y1="225.9" x2="778.4" y2="508.1"/>
		<line id="Line_15" class="st5" x1="916.9" y1="225.9" x2="916.9" y2="508.1"/>
		<line id="Line_23" class="st5" x1="1091.1" y1="225.9" x2="1091.1" y2="508.1"/>
		<line id="Line_17" class="st5" x1="847.6" y1="225.9" x2="847.6" y2="508.1"/>
		<line id="Line_12" class="st5" x1="986.1" y1="225.9" x2="986.1" y2="508.1"/>
		<line id="Line_21" class="st5" x1="1160.4" y1="225.9" x2="1160.4" y2="508.1"/>
		<line id="Line_18" class="st5" x1="813" y1="225.9" x2="813" y2="508.1"/>
		<line id="Line_13" class="st5" x1="951.5" y1="225.9" x2="951.5" y2="508.1"/>
		<line id="Line_22" class="st5" x1="1125.7" y1="225.9" x2="1125.7" y2="508.1"/>
		<line id="Line_16" class="st5" x1="882.2" y1="225.9" x2="882.2" y2="508.1"/>
		<line id="Line_24" class="st5" x1="1056.5" y1="225.9" x2="1056.5" y2="508.1"/>
		<line id="Line_14" class="st5" x1="1020.7" y1="225.9" x2="1020.7" y2="508.1"/>
		<line id="Line_20" class="st5" x1="1195" y1="225.9" x2="1195" y2="508.1"/>
		<line id="Line_25" class="st5" x1="1229.6" y1="225.9" x2="1229.6" y2="508.1"/>
	</g>
	<rect id="Rectangle_3" x="743.9" y="388.5" class="st6" width="34.6" height="211.6"/>
	<rect id="Rectangle_6" x="951.6" y="388.5" class="st6" width="34.6" height="211.6"/>
	<rect id="Rectangle_4" x="813.1" y="459" class="st6" width="34.6" height="141.1"/>
	<rect id="Rectangle_7" x="1022" y="494.3" class="st6" width="34.6" height="105.8"/>
	<rect id="Rectangle_5" x="882.4" y="353.2" class="st6" width="34.6" height="246.9"/>
	<rect id="Rectangle_8" x="1091.2" y="423.7" class="st6" width="34.6" height="176.4"/>
</g>
</svg>
